<?xml version="1.0" standalone="no"?>
<!DOCTYPE svg PUBLIC "-//W3C//DTD SVG 20010904//EN"
 "http://www.w3.org/TR/2001/REC-SVG-20010904/DTD/svg10.dtd">
<svg version="1.0" xmlns="http://www.w3.org/2000/svg"
 width="512.000000pt" height="512.000000pt" viewBox="0 0 512.000000 512.000000"
 preserveAspectRatio="xMidYMid meet">
<metadata>
Created by potrace 1.11, written by Peter Selinger 2001-2013
</metadata>
<g transform="translate(0.000000,512.000000) scale(0.100000,-0.100000)"
fill="#000000" stroke="none">
<path d="M2181 4664 c-17 -67 -47 -120 -98 -175 -47 -50 -93 -72 -253 -121
l-75 -23 -3 -802 -2 -803 -575 0 -575 0 0 408 -1 407 -25 -40 c-37 -59 -103
-189 -141 -280 -39 -93 -38 -65 3 95 31 120 65 211 120 323 l44 88 0 113 0
114 72 94 c40 51 119 143 177 203 89 93 93 98 22 30 -396 -382 -651 -899 -716
-1451 -8 -71 -15 -200 -15 -286 l0 -158 814 0 813 0 17 -58 c61 -218 224 -410
431 -508 127 -59 207 -77 345 -77 138 0 218 18 345 77 207 98 370 290 431 508
l17 58 813 0 814 0 0 158 c0 522 -159 1011 -464 1430 l-61 84 -3 -666 -2 -666
-530 0 -530 0 0 985 0 985 -599 0 -599 0 -11 -46z m553 -1603 c150 -53 272
-174 328 -326 31 -86 31 -264 0 -349 -56 -152 -182 -276 -332 -328 -91 -32
-258 -31 -344 0 -340 125 -464 536 -249 820 76 99 170 162 294 197 75 21 225
14 303 -14z"/>
<path d="M994 4408 l-19 -23 23 19 c21 18 27 26 19 26 -2 0 -12 -10 -23 -22z"/>
</g>
</svg>
