<?xml version="1.0" standalone="no"?>
<!DOCTYPE svg PUBLIC "-//W3C//DTD SVG 20010904//EN"
 "http://www.w3.org/TR/2001/REC-SVG-20010904/DTD/svg10.dtd">
<svg version="1.0" xmlns="http://www.w3.org/2000/svg"
 width="523.000000pt" height="523.000000pt" viewBox="0 0 523.000000 523.000000"
 preserveAspectRatio="xMidYMid meet">
<metadata>
Created by potrace 1.11, written by Peter Selinger 2001-2013
</metadata>
<g transform="translate(0.000000,523.000000) scale(0.100000,-0.100000)"
fill="#000000" stroke="none">
<path d="M2586 4993 c-1 -1 -49 -5 -106 -7 -58 -3 -116 -7 -130 -10 -14 -2
-45 -7 -70 -10 -42 -6 -55 -8 -112 -21 -13 -3 -34 -7 -48 -10 -14 -3 -65 -16
-115 -30 -49 -14 -97 -27 -105 -29 -14 -4 -85 -31 -135 -51 -11 -5 -22 -9 -25
-10 -51 -17 -221 -103 -305 -153 -67 -40 -217 -141 -225 -152 -3 -3 -14 -13
-26 -21 -42 -29 -151 -126 -227 -204 -215 -219 -391 -484 -501 -755 -15 -36
-31 -74 -36 -85 -11 -24 -59 -174 -64 -201 -2 -11 -9 -39 -16 -64 -7 -25 -13
-52 -15 -60 -2 -8 -6 -26 -9 -40 -3 -14 -8 -41 -11 -60 -2 -19 -6 -45 -9 -57
-7 -32 -18 -141 -20 -193 -1 -37 2 -45 17 -44 15 2 17 -10 17 -127 0 -71 -3
-128 -7 -128 -35 6 -37 -6 -18 -157 6 -44 10 -75 30 -190 37 -226 176 -578
313 -794 135 -214 320 -428 487 -566 33 -27 62 -51 65 -54 31 -31 270 -190
287 -190 6 0 13 -4 15 -8 4 -12 166 -91 274 -135 142 -59 329 -114 448 -132
21 -4 48 -9 60 -11 11 -3 41 -7 66 -10 25 -2 65 -6 90 -9 75 -8 309 -9 400 -1
143 13 161 15 240 31 14 3 34 7 45 9 35 7 149 37 165 43 8 3 18 6 22 5 15 -3
241 83 335 129 57 27 108 49 113 49 6 0 10 4 10 10 0 5 11 12 25 16 14 3 25
10 25 14 0 4 8 10 18 13 30 10 60 29 192 126 123 90 164 125 280 241 81 81
116 120 215 242 7 9 18 25 24 36 6 11 17 27 25 34 37 38 182 292 231 408 15
36 34 80 42 99 8 18 16 39 18 45 1 6 5 18 8 26 61 149 121 443 129 625 3 54 1
60 -17 60 -19 0 -20 7 -21 122 -2 117 -1 122 20 125 18 3 21 9 20 48 -2 54
-12 156 -19 190 -2 13 -7 42 -11 65 -3 22 -12 67 -20 100 -8 33 -17 71 -20 85
-8 38 -93 289 -116 340 -80 179 -185 362 -275 480 -275 361 -605 620 -1003
785 -69 28 -192 73 -224 80 -10 2 -33 9 -50 14 -17 6 -65 18 -106 27 -67 15
-97 20 -220 39 -30 4 -124 10 -288 18 -24 1 -45 1 -46 0z"/>
</g>
</svg>
